<?xml version="1.0" encoding="UTF-8"?><!DOCTYPE svg PUBLIC "-//W3C//DTD SVG 1.1//EN" "http://www.w3.org/Graphics/SVG/1.1/DTD/svg11.dtd"><svg xmlns="http://www.w3.org/2000/svg" xmlns:xlink="http://www.w3.org/1999/xlink"><defs><clipPath id="a"><path fill="#fff" transform="translate(11.117 8)" d="M0 0h10.106v16H0z"/></clipPath><clipPath id="a"><path fill="#fff" transform="translate(8.824 8)" d="M0 0h15.159v17H0z"/></clipPath><clipPath id="a"><path fill="#fff" transform="translate(10.582 8)" d="M0 0h12.127v16H0z"/></clipPath><clipPath id="a"><path fill="#fff" transform="translate(8.297 8)" d="M0 0h16.17v16H0z"/></clipPath></defs><symbol id="basket" viewBox="0 0 32 29"><path d="M26.2 29a2.477 2.477 0 1 1 .201 0h-.2ZM6.754 26.32a2.68 2.68 0 1 1 5.364 0 2.68 2.68 0 0 1-5.366 0h.002Zm3.8-5.634a1.184 1.184 0 0 1-1.145-.867L4.575 2.364H1.182a1.182 1.182 0 0 1 0-2.364h4.281a1.183 1.183 0 0 1 1.144.868l4.833 17.455h13.178L29 8.275h-14.6a1.183 1.183 0 1 1 0-2.365h16.413a1.178 1.178 0 0 1 .986.533 1.191 1.191 0 0 1 .1 1.122l-5.405 12.412a1.185 1.185 0 0 1-1.084.709H10.553Z"/></symbol><symbol id="close"><path d="m7.416 6.004 4.3-4.29a1.004 1.004 0 1 0-1.42-1.42l-4.29 4.3-4.29-4.3a1.004 1.004 0 0 0-1.42 1.42l4.3 4.29-4.3 4.29a1 1 0 0 0 .325 1.639 1 1 0 0 0 1.095-.219l4.29-4.3 4.29 4.3a1.002 1.002 0 0 0 1.639-.325 1 1 0 0 0-.22-1.095l-4.3-4.29Z"/></symbol><symbol id="delivery"><path d="M30.287 27.243H14.81a5.562 5.562 0 0 1-10.987 0H1.886A1.869 1.869 0 0 1 .03 25.367V1.877A1.869 1.869 0 0 1 1.886 0h25.551a1.868 1.868 0 0 1 1.856 1.877v1.905h7.121a.9.9 0 0 1 .238.031c2.3.2 3.457 1.4 4.677 3.462l3.56 6.094c.084.145.129.31.13.477v12.458a.934.934 0 0 1-.93.938h-2.814a5.562 5.562 0 0 1-10.987 0Zm1.778-.939a3.714 3.714 0 1 0 3.716-3.755 3.74 3.74 0 0 0-3.716 3.755Zm-26.464 0a3.715 3.715 0 1 0 3.716-3.755A3.74 3.74 0 0 0 5.6 26.304h.001Zm35.672-.938h1.886v-5.618h-2.736a.932.932 0 0 1-.929-.938v-1.847c0-.72.276-1.414.77-1.938h-6.379a.927.927 0 0 1-.229-.03 2.825 2.825 0 0 1-2.574-2.823v-4.7a.936.936 0 0 1 .93-.939h6.482a3.354 3.354 0 0 0-2.578-.88h-6.623v19.709h.994a5.561 5.561 0 0 1 10.987 0v.004Zm-26.464 0h12.627V1.876H1.886v23.49h1.937a5.562 5.562 0 0 1 10.987 0Zm26.542-8.4v.909h1.808v-1.847h-.879a.934.934 0 0 0-.928.935v.003Zm-8.413-4.792a.954.954 0 0 0 .947.958c.064 0 .128.006.19.02H42.6l-2.766-4.736h-6.9l.004 3.758Zm.093 14.132a2.766 2.766 0 0 1 2.75-2.777.938.938 0 0 1 0 1.876.9.9 0 1 0 .891.9.928.928 0 0 1 1.857 0 2.75 2.75 0 1 1-5.5 0h.002Zm-26.464 0a2.766 2.766 0 0 1 2.75-2.777.938.938 0 0 1 0 1.876.9.9 0 1 0 .891.9.928.928 0 0 1 1.857 0 2.75 2.75 0 1 1-5.5 0h.002ZM4.71 5.66a.938.938 0 1 1 0-1.876h19.9a.938.938 0 1 1 0 1.876H4.71Z" fill="#F16D7F"/></symbol><symbol id="fb"><g clip-path="url(#a)"><path d="m19.421 16.28.426-2.664h-2.662v-1.729c0-.729.372-1.439 1.564-1.439h1.21V8.18S18.861 8 17.811 8c-2.193 0-3.626 1.276-3.626 3.586v2.03h-2.437v2.664h2.437v6.44h3v-6.44h2.236Z"/></g></symbol><symbol id="inst"><g clip-path="url(#a)"><path d="M16.408 12.682c-2.152 0-3.888 1.703-3.888 3.815 0 2.111 1.736 3.815 3.888 3.815s3.888-1.704 3.888-3.815c0-2.112-1.736-3.815-3.888-3.815Zm0 6.295c-1.39 0-2.528-1.112-2.528-2.48 0-1.368 1.134-2.48 2.528-2.48 1.394 0 2.528 1.112 2.528 2.48 0 1.368-1.137 2.48-2.528 2.48Zm4.954-6.452c0 .495-.406.89-.907.89a.896.896 0 0 1-.907-.89c0-.49.406-.89.907-.89.5 0 .907.4.907.89Zm2.575.904c-.058-1.192-.335-2.248-1.225-3.118-.887-.87-1.963-1.142-3.177-1.202-1.253-.07-5.005-.07-6.257 0-1.212.056-2.288.329-3.178 1.199-.89.87-1.164 1.925-1.224 3.117-.071 1.229-.071 4.911 0 6.14.057 1.192.335 2.247 1.225 3.117.89.87 1.962 1.143 3.177 1.202 1.252.07 5.004.07 6.257 0 1.214-.056 2.29-.328 3.177-1.202.886-.87 1.164-1.925 1.225-3.117.07-1.229.07-4.908 0-6.136Zm-1.618 7.454a2.536 2.536 0 0 1-1.441 1.414c-.998.389-3.367.299-4.47.299-1.103 0-3.475.086-4.47-.299a2.536 2.536 0 0 1-1.442-1.414c-.396-.98-.304-3.304-.304-4.386 0-1.083-.088-3.41.304-4.386a2.535 2.535 0 0 1 1.442-1.415c.998-.388 3.367-.299 4.47-.299 1.103 0 3.475-.086 4.47.299.663.259 1.174.76 1.441 1.415.396.979.305 3.303.305 4.386 0 1.082.091 3.41-.305 4.386Z"/></g></symbol><symbol id="pinterest"><g clip-path="url(#a)"><path d="M17.025 8.203c-3.24 0-6.443 2.138-6.443 5.597 0 2.2 1.25 3.45 2.009 3.45.312 0 .492-.863.492-1.106 0-.29-.748-.91-.748-2.119 0-2.513 1.933-4.294 4.434-4.294 2.15 0 3.742 1.21 3.742 3.431 0 1.66-.672 4.772-2.851 4.772-.787 0-1.46-.562-1.46-1.368 0-1.182.834-2.325.834-3.544 0-2.069-2.965-1.694-2.965.806 0 .525.066 1.106.303 1.585-.436 1.856-1.327 4.621-1.327 6.534 0 .59.086 1.172.143 1.762.107.12.053.107.217.047 1.592-2.156 1.535-2.578 2.255-5.4.389.731 1.393 1.125 2.19 1.125 3.353 0 4.86-3.234 4.86-6.15 0-3.103-2.71-5.128-5.685-5.128Z"/></g></symbol><symbol id="quality"><path d="M42.394 8.536a4.6 4.6 0 0 0-4.646 4.533 4.456 4.456 0 0 0 1.56 3.365l-5.86 2.055-8.34-9.683a4.535 4.535 0 0 0 3.1-4.256 4.646 4.646 0 0 0-9.29 0 4.543 4.543 0 0 0 3.046 4.242l-8.352 9.7-5.858-2.055a4.457 4.457 0 0 0 1.558-3.365 4.647 4.647 0 1 0-5.745 4.393v12.29c.007.083.024.163.05.242-.033.126-.05.257-.05.388 0 4.412 17.919 4.542 19.962 4.542 2.043 0 19.962-.13 19.962-4.542 0-.131-.018-.262-.05-.388a.899.899 0 0 0 .05-.241V17.465a4.516 4.516 0 0 0-1.093-8.926l-.004-.003Zm-21.22-3.984a2.385 2.385 0 1 1 2.387 2.328 2.362 2.362 0 0 1-2.386-2.328Zm-7.59 16.276a1.155 1.155 0 0 0 1.247-.33l8.7-10.1 8.7 10.1a1.156 1.156 0 0 0 1.245.33l7.758-2.724v9.937c-4.885-2.122-16.11-2.2-17.7-2.2-1.591 0-12.82.079-17.7 2.2v-9.937l7.75 2.724Zm9.944 11.889c-8.7 0-14.25-1.011-16.557-1.862a4.63 4.63 0 0 1-1-.474c.722-.521 3.06-1.232 6.966-1.732a93.169 93.169 0 0 1 21.175 0c3.9.5 6.245 1.21 6.965 1.732-.31.198-.645.358-.995.474-2.302.849-7.846 1.862-16.554 1.862ZM2.28 13.069a2.385 2.385 0 1 1 2.386 2.33 2.361 2.361 0 0 1-2.386-2.33Zm40.113 2.33a2.329 2.329 0 1 1 2.386-2.33 2.362 2.362 0 0 1-2.386 2.329Z" fill="#F16D7F"/></symbol><symbol id="sale"><path d="m19.994 37.024-3.471 2.9-2.288-3.92-4.24 1.512-.822-4.48-4.493-.045.732-4.5-4.208-1.6 2.21-3.966L0 19.96l3.412-2.967-2.21-3.965 4.209-1.6-.733-4.495 4.494-.044.822-4.48 4.24 1.51L16.522 0l3.471 2.9L23.464 0l2.289 3.92 4.24-1.511.821 4.48 4.494.046-.732 4.495 4.208 1.6-2.21 3.966 3.412 2.965-3.412 2.967 2.209 3.966-4.209 1.6.733 4.494-4.495.045-.821 4.48-4.238-1.51-2.289 3.92-3.47-2.9ZM21.2 35.54l1.761 1.471 1.161-1.99.792-1.356 1.468.523 2.151.768.417-2.273.285-1.555 1.561-.016 2.282-.021-.372-2.282-.254-1.56 1.459-.554 2.134-.813-1.12-2.01-.766-1.375 1.183-1.027 1.734-1.51-1.733-1.5-1.183-1.03.766-1.375 1.121-2.011-2.134-.811-1.459-.553.255-1.56.372-2.281-2.282-.023-1.56-.016-.285-1.554-.416-2.273-2.152.767-1.468.523-.793-1.357-1.162-1.99-1.762 1.47-1.205 1.006-1.205-1.005-1.761-1.471-1.161 1.989-.792 1.357-1.469-.523-2.15-.768-.418 2.274-.285 1.554-1.56.016-2.281.022.372 2.282.254 1.558-1.459.555-2.135.81 1.121 2.012.766 1.375-1.183 1.029-1.734 1.508 1.733 1.507 1.183 1.029-.766 1.375-1.121 2.01 2.133.81 1.46.555-.255 1.559-.371 2.284 2.281.023 1.56.016.285 1.555.417 2.272 2.152-.767 1.469-.523.792 1.357 1.162 1.99 1.761-1.471 1.205-1.005 1.204.998Zm.118-12.521c0-2.927 1.565-4.555 3.459-4.555 2.006 0 3.3 1.563 3.3 4.33 0 3.059-1.585 4.577-3.415 4.577-1.779 0-3.324-1.45-3.344-4.352Zm1.521-.088c-.023 1.85.682 3.258 1.872 3.258 1.277 0 1.85-1.385 1.85-3.3 0-1.765-.507-3.237-1.85-3.237-1.211-.004-1.872 1.45-1.872 3.278Zm-7.645 4.4 8.415-14.719h1.233l-8.415 14.719h-1.233ZM11.979 16.99c0-2.9 1.563-4.532 3.458-4.532 2 0 3.326 1.564 3.326 4.332 0 3.058-1.586 4.575-3.436 4.575-1.783 0-3.327-1.45-3.348-4.374v-.001Zm1.542-.066c-.044 1.85.641 3.257 1.85 3.259 1.277 0 1.85-1.384 1.85-3.3 0-1.766-.507-3.238-1.85-3.238-1.209-.003-1.85 1.447-1.85 3.28v-.001Z" fill="#F16D7F"/></symbol><symbol id="search"><path d="M19.06 17.626A10.395 10.395 0 1 0 11.42 21c2.253.003 4.444-.731 6.24-2.09l7.749 7.807a.925.925 0 0 0 .66.285.9.9 0 0 0 .66-.285.971.971 0 0 0 0-1.346l-7.67-7.746ZM2.887 10.5a8.535 8.535 0 1 1 8.534 8.6 8.575 8.575 0 0 1-8.534-8.6Z" fill="#E8E8E8"/></symbol><symbol id="twitter"><g clip-path="url(#a)"><path d="M22.805 12.74c.01.143.01.285.01.427 0 4.335-3.335 9.33-9.43 9.33a9.437 9.437 0 0 1-5.088-1.472c.267.03.523.04.8.04 1.55 0 2.976-.517 4.114-1.4a3.316 3.316 0 0 1-3.098-2.275c.205.03.41.051.626.051.297 0 .595-.04.872-.112-1.519-.304-2.658-1.624-2.658-3.218v-.04c.442.243.955.395 1.498.416a3.268 3.268 0 0 1-1.477-2.731c0-.61.164-1.168.451-1.655a9.453 9.453 0 0 0 6.834 3.431 3.664 3.664 0 0 1-.082-.75c0-1.808 1.477-3.28 3.314-3.28.954 0 1.816.396 2.421 1.035a6.568 6.568 0 0 0 2.103-.791 3.277 3.277 0 0 1-1.457 1.807 6.697 6.697 0 0 0 1.909-.508 7.084 7.084 0 0 1-1.662 1.696Z"/></g></symbol><symbol id="user"><path d="M14.5 19.937c4.5 0 8.156-4.473 8.156-9.969C22.656 4.472 19 0 14.5 0a7.45 7.45 0 0 0-5.834 3 11.159 11.159 0 0 0-2.322 6.974c0 5.491 3.656 9.963 8.156 9.963Zm0-18.124c3.5 0 6.344 3.659 6.344 8.156 0 4.497-2.846 8.156-6.344 8.156s-6.344-3.66-6.345-8.156C8.154 5.473 11 1.813 14.5 1.813Zm6.344 16.312a.907.907 0 0 0 0 1.813 6.351 6.351 0 0 1 6.344 6.344.908.908 0 0 1-.906.906H2.72a.908.908 0 0 1-.906-.906 6.352 6.352 0 0 1 6.344-6.344.906.906 0 0 0 0-1.812A8.165 8.165 0 0 0 0 26.281 2.722 2.722 0 0 0 2.719 29h23.563A2.722 2.722 0 0 0 29 26.281a8.166 8.166 0 0 0-8.156-8.156Z" fill="#E8E8E8"/></symbol></svg>