<svg width="33" height="32" viewBox="0 0 33 32" xmlns="http://www.w3.org/2000/svg">
<g clip-path="url(#clip0_128_240)">
<path d="M17.0248 8.20312C13.7844 8.20312 10.582 10.3406 10.582 13.8C10.582 16 11.8327 17.25 12.5906 17.25C12.9033 17.25 13.0833 16.3875 13.0833 16.1438C13.0833 15.8531 12.3348 15.2344 12.3348 14.025C12.3348 11.5125 14.2677 9.73125 16.769 9.73125C18.9197 9.73125 20.5114 10.9406 20.5114 13.1625C20.5114 14.8219 19.8387 17.9344 17.6596 17.9344C16.8732 17.9344 16.2005 17.3719 16.2005 16.5656C16.2005 15.3844 17.0342 14.2406 17.0342 13.0219C17.0342 10.9531 14.0687 11.3281 14.0687 13.8281C14.0687 14.3531 14.135 14.9344 14.3719 15.4125C13.936 17.2687 13.0454 20.0344 13.0454 21.9469C13.0454 22.5375 13.1307 23.1188 13.1875 23.7094C13.2949 23.8281 13.2412 23.8156 13.4055 23.7563C14.9972 21.6 14.9404 21.1781 15.6604 18.3562C16.0489 19.0875 17.0532 19.4812 17.8491 19.4812C21.2031 19.4812 22.7095 16.2469 22.7095 13.3313C22.7095 10.2281 19.9998 8.20312 17.0248 8.20312Z" />
</g>
<defs>
<clipPath id="clip0_128_240">
<rect width="12.1275" height="16" fill="white" transform="translate(10.582 8)"/>
</clipPath>
</defs>
</svg>
