<svg xmlns="http://www.w3.org/2000/svg" viewBox="0 0 427.3 385.6"><defs><style>.cls-1{fill:#f1d9dd;}.cls-1,.cls-2,.cls-3{fill-rule:evenodd;}.cls-2{fill:#fcbac3;}.cls-3{fill:#f38191;}</style></defs><g id="svgg"><path class="cls-1" d="M0,218.52a6.54,6.54,0,0,0,0,1.53c.18,1,202.78,125.17,209.77,128.5,1.89.92,5.82,2.74,8.63,4.1,53.48,25.05,121,13.1,163.17-28.87,46-45.73,57.55-112.61,29.57-171.54-24.17-51-81.17-84.86-138-82.19-62.86,3-111.37,38.25-131.14,95.54-8.52,24.68-9.36,57.33-2,79.41.94,2.69.86,4.16-.17,4.12-.36,0-26.18-15.65-57.55-34.69-48.56-29.67-57-34.69-57.83-34.63S.44,216.53,0,218.52m201.78-63.29c25.21-31.47,71.54-44.77,109.5-31.54,36.88,12.92,61.74,44.16,66.6,83.58,3.71,29.8-6.8,59.47-28.9,81.83-24.55,24.84-65.07,34.78-98.91,24.18-67.47-20.95-92.46-103-48.29-158"/><path class="cls-2" d="M41.16,93.06a6.83,6.83,0,0,0-.79,1.31c-.4,1,107.79,212.53,112,219,1.14,1.78,3.54,5.38,5.23,8,32.57,49.26,96.43,74.27,154.29,60.43,63.09-15.05,107.82-66.1,114.66-131,5.95-56.1-25-114.72-74.91-142.07-55.19-30.24-115-25.42-161.72,13.17-20.13,16.63-37.87,44-43.09,66.73-.6,2.78-1.44,4-2.29,3.42-.32-.17-14.19-27-31-59.6-26-50.63-30.54-59.3-31.3-59.7S42.53,91.57,41.16,93.06m205.18,51.19c37.92-13.72,84.39-.92,109.89,30.16,24.73,30.25,29.66,69.87,13.26,106-12.37,27.37-36.81,47.21-67.32,54.77-33.9,8.4-73.66-4.24-97-30.93-46.66-53.05-25.21-136.1,41.18-160"/><path class="cls-3" d="M132.87.32a5.47,5.47,0,0,0-1.3.83c-.83.73-1.11,238.3-.29,246,.23,2.13.7,6.39,1,9.47C138.81,315.31,184.19,366.7,242,380.86c63,15.43,126.1-9.58,161.81-64.18C434.7,269.47,433.94,203.21,402,156,366.65,103.91,311.31,81,252.07,93.91c-25.48,5.57-53.82,21.92-68.81,39.69-1.83,2.18-3.08,2.86-3.63,2-.19-.3-.35-30.52-.35-67.17,0-56.89-.09-66.73-.58-67.4S134.81-.41,132.87.32M292.09,139.43c40,5.13,75.53,37.74,84,77,8.2,38.18-5.48,75.73-36.57,100.39-23.54,18.67-54.3,25.18-84.94,18-34-8-63.61-37.44-72.24-71.84-17.17-68.41,39.78-132.48,109.8-123.52"/></g></svg>
