<?xml version="1.0" standalone="no"?>
<!DOCTYPE svg PUBLIC "-//W3C//DTD SVG 20010904//EN"
 "http://www.w3.org/TR/2001/REC-SVG-20010904/DTD/svg10.dtd">
<svg version="1.0" xmlns="http://www.w3.org/2000/svg"
 width="854.000000pt" height="854.000000pt" viewBox="0 0 854.000000 854.000000"
 preserveAspectRatio="xMidYMid meet">
<metadata>
Created by potrace 1.14, written by Peter Selinger 2001-2017
</metadata>
<g transform="translate(0.000000,854.000000) scale(0.100000,-0.100000)"
fill="#000000" stroke="none">
<path d="M2648 8103 c-19 -23 -20 -99 -22 -1895 0 -768 -4 -1394 -7 -1390 -4
4 -40 72 -82 152 -199 385 -247 478 -332 645 -365 711 -516 1001 -550 1053 -3
4 -76 -28 -235 -106 -85 -41 -157 -76 -160 -77 -18 -5 -146 -72 -151 -78 -3
-5 -10 -9 -15 -9 -13 0 -72 -31 -237 -121 -22 -13 -37 -28 -37 -40 0 -17 547
-1116 561 -1127 3 -3 10 -15 13 -28 4 -13 22 -49 39 -80 18 -32 84 -161 147
-287 63 -127 117 -232 120 -235 3 -3 50 -95 106 -205 55 -110 165 -325 242
-477 78 -152 142 -279 142 -281 0 -3 -39 19 -88 48 -175 108 -205 125 -213
125 -5 0 -9 3 -9 8 0 4 -21 18 -47 32 -27 13 -50 27 -53 30 -3 3 -14 10 -25
17 -50 29 -279 170 -303 185 -15 10 -34 21 -42 25 -8 3 -34 19 -57 35 -23 15
-44 28 -46 28 -3 0 -54 30 -114 68 -59 37 -125 76 -145 87 -21 11 -38 23 -38
27 0 5 -4 8 -9 8 -4 0 -48 24 -97 54 -116 71 -353 210 -382 226 -26 13 -31 9
-74 -60 -12 -19 -24 -37 -27 -40 -10 -9 -31 -45 -37 -62 -4 -10 -9 -18 -13
-18 -4 0 -23 -27 -42 -60 -18 -33 -37 -60 -41 -60 -5 0 -8 -4 -8 -10 0 -5 -29
-55 -65 -110 -36 -55 -65 -103 -65 -106 0 -3 -11 -20 -25 -38 -14 -18 -25 -38
-25 -44 0 -7 -4 -12 -9 -12 -5 0 -12 -11 -15 -24 -3 -14 -12 -31 -19 -38 -19
-19 -47 -78 -47 -99 0 -10 12 -25 28 -34 15 -9 39 -23 54 -33 15 -9 63 -39
105 -66 43 -27 110 -69 148 -93 39 -24 77 -48 85 -53 22 -15 228 -142 345
-213 55 -33 101 -64 103 -69 2 -4 8 -8 14 -8 5 0 40 -19 76 -43 37 -24 74 -46
82 -50 8 -4 44 -25 79 -47 34 -22 67 -40 71 -40 5 0 10 -4 12 -8 3 -8 223
-145 265 -166 13 -6 23 -14 23 -18 0 -5 4 -8 9 -8 5 0 45 -23 88 -50 43 -28
86 -53 96 -56 9 -4 17 -10 17 -15 0 -5 5 -9 11 -9 6 0 42 -20 80 -45 38 -25
72 -45 74 -45 2 0 24 -13 48 -30 25 -16 49 -30 55 -30 6 0 12 -4 14 -8 2 -5
29 -24 62 -43 32 -19 70 -41 85 -50 120 -75 315 -195 461 -284 96 -58 215
-131 264 -161 49 -30 92 -54 96 -54 4 0 14 -7 21 -16 7 -9 23 -20 35 -24 12
-5 52 -55 90 -112 37 -57 70 -105 74 -108 3 -3 20 -25 38 -50 17 -25 41 -57
54 -72 13 -14 39 -46 58 -70 47 -57 283 -293 344 -343 97 -78 105 -85 221
-169 53 -38 133 -88 238 -150 18 -10 82 -43 142 -73 61 -29 118 -58 127 -63
10 -6 22 -10 28 -10 6 0 29 -9 53 -19 70 -32 381 -130 415 -131 1 0 3 0 5 -1
1 0 9 -2 17 -4 8 -1 40 -8 70 -14 30 -6 72 -13 94 -17 21 -3 48 -8 60 -10 11
-3 44 -7 71 -10 28 -2 79 -8 115 -11 84 -10 435 -9 525 0 138 14 196 23 310
48 50 11 101 22 115 25 33 6 249 72 275 84 11 5 31 12 45 15 30 9 47 16 210
90 69 31 156 74 193 96 38 21 70 39 72 39 9 0 258 169 320 218 181 140 341
299 500 496 63 77 214 300 257 380 30 54 132 258 133 266 1 3 9 22 18 44 9 21
17 41 17 43 0 3 7 19 15 36 43 95 136 429 160 582 14 91 24 161 32 245 10 94
9 406 -1 525 -4 50 -9 142 -11 205 -3 106 -7 156 -21 265 -5 47 -15 111 -20
140 -5 24 -23 120 -30 155 -10 51 -68 256 -81 290 -3 8 -7 20 -9 25 -5 19 -55
150 -69 182 -8 17 -15 34 -15 37 0 9 -106 224 -141 286 -59 105 -184 290 -234
346 -5 7 -26 31 -45 55 -100 123 -259 281 -400 396 -86 70 -228 173 -250 181
-8 3 -17 9 -20 13 -16 24 -286 169 -450 242 -85 38 -326 124 -365 131 -5 1
-16 5 -22 9 -7 5 -13 6 -13 4 0 -3 -21 1 -46 9 -26 7 -50 11 -55 8 -5 -3 -9
-1 -9 3 0 5 -8 9 -17 10 -10 0 -29 4 -43 7 -24 6 -94 18 -175 31 -22 4 -58 9
-80 11 -22 2 -69 6 -105 9 -152 15 -504 3 -631 -21 -19 -3 -45 -7 -59 -9 -62
-8 -104 -15 -120 -20 -10 -3 -31 -7 -47 -9 -15 -2 -46 -9 -68 -14 -22 -6 -51
-13 -65 -16 -14 -3 -41 -10 -60 -16 -19 -6 -44 -13 -54 -15 -11 -3 -42 -12
-70 -22 -28 -9 -53 -17 -56 -18 -8 0 -124 -46 -215 -83 -42 -17 -256 -124
-290 -145 -11 -7 -39 -24 -62 -39 -23 -16 -44 -28 -48 -28 -3 0 -11 -5 -18
-10 -7 -6 -50 -38 -97 -72 -78 -56 -158 -120 -220 -176 -14 -12 -26 -19 -27
-15 -1 5 -4 479 -5 1055 -2 575 -6 1050 -11 1054 -11 11 -89 14 -528 19 -360
5 -387 4 -401 -12z m3157 -2767 c51 -7 58 -8 130 -21 101 -18 242 -57 342 -95
59 -23 116 -44 126 -47 9 -3 17 -9 17 -14 0 -5 9 -9 19 -9 11 0 21 -3 23 -7 2
-5 25 -19 53 -33 27 -14 78 -44 113 -67 35 -24 66 -43 68 -43 3 0 11 -6 19
-12 7 -7 28 -24 46 -38 68 -51 164 -135 228 -199 76 -76 241 -280 241 -297 0
-7 4 -14 9 -16 14 -5 86 -128 140 -240 51 -105 116 -289 127 -356 3 -20 8 -40
10 -44 3 -4 7 -22 9 -40 3 -18 7 -44 11 -58 22 -97 20 -206 -6 -325 -12 -55
-23 -107 -25 -115 -1 -8 -5 -22 -8 -30 -9 -25 -31 -94 -33 -106 -5 -31 -100
-240 -144 -318 -27 -49 -50 -93 -50 -97 0 -4 -3 -9 -7 -11 -5 -1 -21 -23 -38
-48 -16 -25 -33 -49 -38 -55 -148 -196 -321 -368 -452 -451 -16 -10 -32 -21
-35 -25 -17 -22 -258 -146 -385 -199 -63 -26 -238 -77 -330 -96 -11 -2 -31 -6
-45 -9 -38 -8 -93 -15 -172 -24 -99 -12 -463 -4 -463 9 0 1 -21 3 -47 5 -27 2
-57 6 -68 10 -11 3 -30 8 -42 10 -13 3 -54 14 -93 25 -38 11 -77 22 -85 25 -8
2 -16 4 -17 5 -2 2 -7 4 -13 5 -5 1 -12 4 -15 5 -3 1 -8 3 -12 5 -5 1 -17 5
-28 10 -336 133 -603 322 -820 581 -89 106 -95 113 -95 124 0 6 -4 10 -10 10
-5 0 -10 4 -10 9 0 5 -18 35 -39 67 -35 53 -146 258 -149 277 -1 4 -9 24 -17
45 -15 35 -65 176 -69 197 -2 6 -9 30 -16 55 -7 25 -14 54 -16 65 -12 87 -17
112 -23 125 -20 40 8 246 58 431 39 146 152 413 210 498 10 14 42 62 71 106
29 44 56 82 59 85 3 3 24 28 46 55 71 90 231 243 350 333 29 22 185 122 190
122 4 0 20 9 36 21 16 11 29 17 29 12 0 -4 4 -3 8 2 6 9 134 69 227 106 21 8
66 23 75 24 3 0 10 3 15 6 9 6 54 19 84 25 7 1 34 8 60 14 102 24 238 43 255
37 7 -3 18 -2 25 2 14 9 314 6 386 -3z"/>
</g>
</svg>
