<svg width="33" height="32" viewBox="0 0 33 32" xmlns="http://www.w3.org/2000/svg">
<g clip-path="url(#clip0_128_232)">
<path d="M16.4079 12.6816C14.2558 12.6816 12.5199 14.3849 12.5199 16.4966C12.5199 18.6083 14.2558 20.3117 16.4079 20.3117C18.56 20.3117 20.2959 18.6083 20.2959 16.4966C20.2959 14.3849 18.56 12.6816 16.4079 12.6816ZM16.4079 18.9769C15.0171 18.9769 13.8802 17.8646 13.8802 16.4966C13.8802 15.1287 15.0138 14.0164 16.4079 14.0164C17.802 14.0164 18.9356 15.1287 18.9356 16.4966C18.9356 17.8646 17.7986 18.9769 16.4079 18.9769V18.9769ZM21.3617 12.5255C21.3617 13.0203 20.9557 13.4154 20.4549 13.4154C19.9507 13.4154 19.548 13.0169 19.548 12.5255C19.548 12.0341 19.9541 11.6357 20.4549 11.6357C20.9557 11.6357 21.3617 12.0341 21.3617 12.5255ZM23.9368 13.4287C23.8793 12.2367 23.6018 11.1808 22.7119 10.3109C21.8253 9.44097 20.7493 9.1687 19.5345 9.10894C18.2825 9.03921 14.5299 9.03921 13.2779 9.10894C12.0665 9.16538 10.9904 9.43765 10.1005 10.3076C9.21056 11.1775 8.93647 12.2333 8.87556 13.4253C8.8045 14.6539 8.8045 18.3361 8.87556 19.5646C8.93308 20.7566 9.21056 21.8124 10.1005 22.6824C10.9904 23.5523 12.0631 23.8246 13.2779 23.8843C14.5299 23.9541 18.2825 23.9541 19.5345 23.8843C20.7493 23.8279 21.8253 23.5556 22.7119 22.6824C23.5984 21.8124 23.8759 20.7566 23.9368 19.5646C24.0079 18.3361 24.0079 14.6572 23.9368 13.4287V13.4287ZM22.3194 20.8828C22.0554 21.5335 21.5445 22.0349 20.8779 22.2972C19.8796 22.6857 17.511 22.596 16.4079 22.596C15.3048 22.596 12.9327 22.6824 11.9379 22.2972C11.2747 22.0382 10.7637 21.5369 10.4964 20.8828C10.1005 19.9033 10.1919 17.5791 10.1919 16.4966C10.1919 15.4142 10.1039 13.0867 10.4964 12.1105C10.7603 11.4597 11.2713 10.9583 11.9379 10.696C12.9361 10.3076 15.3048 10.3972 16.4079 10.3972C17.511 10.3972 19.883 10.3109 20.8779 10.696C21.5411 10.955 22.052 11.4564 22.3194 12.1105C22.7153 13.09 22.6239 15.4142 22.6239 16.4966C22.6239 17.5791 22.7153 19.9066 22.3194 20.8828Z" />
</g>
<defs>
<clipPath id="clip0_128_232">
<rect width="15.1594" height="17" fill="white" transform="translate(8.82422 8)"/>
</clipPath>
</defs>
</svg>
