<svg width="33" height="32" viewBox="0 0 33 32" xmlns="http://www.w3.org/2000/svg">
<g clip-path="url(#clip0_128_236)">
<path d="M22.8047 12.7405C22.815 12.8826 22.815 13.0248 22.815 13.1669C22.815 17.5019 19.4805 22.4969 13.3859 22.4969C11.5083 22.4969 9.76408 21.9588 8.29688 21.0248C8.56365 21.0552 8.82013 21.0654 9.09716 21.0654C10.6464 21.0654 12.0726 20.5476 13.2115 19.6644C11.7545 19.6339 10.5336 18.6898 10.1129 17.3903C10.3181 17.4207 10.5233 17.441 10.7388 17.441C11.0363 17.441 11.3339 17.4004 11.6109 17.3294C10.0924 17.0248 8.9535 15.705 8.9535 14.1111V14.0705C9.39467 14.3141 9.90772 14.4664 10.4515 14.4867C9.55883 13.8979 8.97403 12.8928 8.97403 11.7557C8.97403 11.1466 9.13816 10.5882 9.42546 10.1009C11.0568 12.0908 13.509 13.3902 16.2587 13.5324C16.2074 13.2887 16.1766 13.035 16.1766 12.7811C16.1766 10.974 17.6541 9.50195 19.4907 9.50195C20.4448 9.50195 21.3067 9.89789 21.912 10.5375C22.661 10.3954 23.3792 10.1212 24.0154 9.74561C23.7691 10.507 23.2459 11.1466 22.5584 11.5527C23.2254 11.4817 23.8717 11.2989 24.4668 11.0451C24.0154 11.6948 23.4511 12.2735 22.8047 12.7405V12.7405Z" />
</g>
<defs>
<clipPath id="clip0_128_236">
<rect width="16.17" height="16" fill="white" transform="translate(8.29688 8)"/>
</clipPath>
</defs>
</svg>
